<svg width="current" height="195" viewBox="0 0 230 195" fill="none" xmlns="http://www.w3.org/2000/svg">
<path d="M158.944 58.8552C169.406 58.8552 177.888 50.3286 177.888 39.8105C177.888 29.2925 169.406 20.7659 158.944 20.7659C148.481 20.7659 140 29.2925 140 39.8105C140 50.3286 148.481 58.8552 158.944 58.8552Z" fill="#76E481"/>
<path d="M228.095 117.996C226.593 101.89 223.54 88.5129 219.034 75.9305C215.835 66.997 212.526 59.3218 212.526 59.3218C209.522 42.2098 206.803 28.6318 199.795 19.5725C192.786 10.5132 185.454 5.04478 177.388 2.32161C165.288 -0.856802 149.945 -1.59161 147.441 5.45451C144.938 12.5006 153.189 12.3076 153.189 12.3076C153.189 12.3076 171.562 9.5846 182.317 21.3885C193.073 33.1925 193.552 49.5478 193.552 49.5478C177.031 48.5412 166.017 61.6269 157.507 71.6928C148.996 81.7587 146.443 87.003 144.941 96.0623C143.439 105.122 149.997 117.493 159.509 119.506C164.941 120.695 170.472 121.369 176.03 121.519C176.03 121.519 178.032 125.545 176.03 140.644C174.027 155.743 170.523 164.299 167.519 176.378C164.515 188.457 171.524 193.993 174.528 193.993C177.532 193.993 182.538 196.51 186.042 180.404C189.547 164.299 196.055 129.572 196.055 129.572C197.557 130.075 211.074 130.075 211.074 130.075V180.908C211.074 195 218.083 195 221.086 195C224.09 195 228.596 195 229.597 180.908C230.598 166.816 229.597 134.101 228.095 117.996ZM171.524 107.427C166.518 107.93 164.015 107.427 161.011 103.4C157.762 99.0418 163.013 88.3015 167.519 91.3213C172.025 94.341 171.524 107.427 171.524 107.427Z" fill="#76E481"/>
<rect y="57" width="122" height="101" rx="28" fill="#76E481"/>
</svg>
