<svg width="235" height="228" viewBox="0 0 235 228" fill="none" xmlns="http://www.w3.org/2000/svg">
<path d="M117.466 225C175.211 225 222.022 178.168 222.022 120.397C222.022 62.6259 175.211 15.7934 117.466 15.7934C59.7214 15.7934 12.9102 62.6259 12.9102 120.397C12.9102 178.168 59.7214 225 117.466 225Z" fill="url(#paint0_linear_1587_2641)"/>
<path d="M173.873 40.1322H58.0468C50.8272 40.1322 44.9746 45.9875 44.9746 53.2103H186.945C186.945 45.9875 181.092 40.1322 173.873 40.1322Z" fill="url(#paint1_linear_1587_2641)"/>
<path d="M44.9746 52.8531H186.945V161.029C186.945 165.839 185.035 170.451 181.636 173.852C178.236 177.253 173.626 179.164 168.819 179.164H63.1009C58.2935 179.164 53.683 177.253 50.2837 173.852C46.8843 170.451 44.9746 165.839 44.9746 161.029V52.8531Z" fill="url(#paint2_linear_1587_2641)"/>
<path d="M162.546 66.5166H69.4292C67.49 66.5166 65.918 68.0877 65.918 70.0257C65.918 71.9637 67.49 73.5347 69.4292 73.5347H162.546C164.485 73.5347 166.057 71.9637 166.057 70.0257C166.057 68.0877 164.485 66.5166 162.546 66.5166Z" fill="url(#paint3_linear_1587_2641)"/>
<path d="M162.546 96.3293H69.4292C67.49 96.3293 65.918 97.9003 65.918 99.8383C65.918 101.776 67.49 103.347 69.4292 103.347H162.546C164.485 103.347 166.057 101.776 166.057 99.8383C166.057 97.9003 164.485 96.3293 162.546 96.3293Z" fill="url(#paint4_linear_1587_2641)"/>
<path d="M162.546 126.149H69.4292C67.49 126.149 65.918 127.72 65.918 129.658C65.918 131.596 67.49 133.167 69.4292 133.167H162.546C164.485 133.167 166.057 131.596 166.057 129.658C166.057 127.72 164.485 126.149 162.546 126.149Z" fill="url(#paint5_linear_1587_2641)"/>
<path d="M162.546 155.968H69.4292C67.49 155.968 65.918 157.54 65.918 159.478C65.918 161.416 67.49 162.987 69.4292 162.987H162.546C164.485 162.987 166.057 161.416 166.057 159.478C166.057 157.54 164.485 155.968 162.546 155.968Z" fill="url(#paint6_linear_1587_2641)"/>
<g filter="url(#filter0_d_1587_2641)">
<path d="M68.7957 119.753H19.2125C15.2292 119.753 12 122.984 12 126.969V197.873C12 201.858 15.2292 205.088 19.2125 205.088H68.7957C72.779 205.088 76.0082 201.858 76.0082 197.873V126.969C76.0082 122.984 72.779 119.753 68.7957 119.753Z" fill="url(#paint7_linear_1587_2641)"/>
</g>
<g filter="url(#filter1_d_1587_2641)">
<path d="M209.944 9H155.178C152.625 9 150.557 11.0698 150.557 13.623V39.3763C150.557 41.9295 152.625 43.9992 155.178 43.9992H209.944C212.496 43.9992 214.565 41.9295 214.565 39.3763V13.623C214.565 11.0698 212.496 9 209.944 9Z" fill="url(#paint8_linear_1587_2641)"/>
</g>
<path d="M63.2643 155.228H24.7469C23.4499 155.228 22.3984 156.28 22.3984 157.578V157.585C22.3984 158.883 23.4499 159.935 24.7469 159.935H63.2643C64.5613 159.935 65.6127 158.883 65.6127 157.585V157.578C65.6127 156.28 64.5613 155.228 63.2643 155.228Z" fill="url(#paint9_linear_1587_2641)"/>
<path d="M63.2822 188.343H25.0958C23.81 188.343 22.7676 189.362 22.7676 190.62V190.627C22.7676 191.884 23.81 192.903 25.0958 192.903H63.2822C64.5681 192.903 65.6105 191.884 65.6105 190.627V190.62C65.6105 189.362 64.5681 188.343 63.2822 188.343Z" fill="url(#paint10_linear_1587_2641)"/>
<path d="M63.2822 171.014H25.0958C23.81 171.014 22.7676 172.034 22.7676 173.291V173.298C22.7676 174.555 23.81 175.574 25.0958 175.574H63.2822C64.5681 175.574 65.6105 174.555 65.6105 173.298V173.291C65.6105 172.034 64.5681 171.014 63.2822 171.014Z" fill="url(#paint11_linear_1587_2641)"/>
<path d="M38.823 130.701H27.5672C25.0739 130.701 23.0527 132.723 23.0527 135.218V138.343C23.0527 140.837 25.0739 142.859 27.5672 142.859H38.823C41.3163 142.859 43.3375 140.837 43.3375 138.343V135.218C43.3375 132.723 41.3163 130.701 38.823 130.701Z" fill="url(#paint12_linear_1587_2641)"/>
<path d="M164.074 31.7993C167.008 31.7993 169.387 29.4198 169.387 26.4845C169.387 23.5491 167.008 21.1696 164.074 21.1696C161.14 21.1696 158.762 23.5491 158.762 26.4845C158.762 29.4198 161.14 31.7993 164.074 31.7993Z" fill="#A0EFA8"/>
<path d="M183.059 31.7993C185.993 31.7993 188.371 29.4198 188.371 26.4845C188.371 23.5491 185.993 21.1696 183.059 21.1696C180.125 21.1696 177.746 23.5491 177.746 26.4845C177.746 29.4198 180.125 31.7993 183.059 31.7993Z" fill="url(#paint13_linear_1587_2641)"/>
<path d="M202.045 31.7993C204.979 31.7993 207.357 29.4198 207.357 26.4845C207.357 23.5491 204.979 21.1696 202.045 21.1696C199.111 21.1696 196.732 23.5491 196.732 26.4845C196.732 29.4198 199.111 31.7993 202.045 31.7993Z" fill="url(#paint14_linear_1587_2641)"/>
<path d="M187.634 158.576L174.18 173.416L212.104 207.832L225.559 192.992L187.634 158.576Z" fill="url(#paint15_linear_1587_2641)"/>
<path fill-rule="evenodd" clip-rule="evenodd" d="M201.86 134.02C201.86 165.065 176.704 190.233 145.672 190.233C114.64 190.233 89.4844 165.065 89.4844 134.02C89.4844 102.974 114.64 77.8064 145.672 77.8064C176.704 77.8064 201.86 102.974 201.86 134.02ZM193.241 134.02C193.241 160.303 171.944 181.61 145.672 181.61C119.4 181.61 98.1027 160.303 98.1027 134.02C98.1027 107.736 119.4 86.4289 145.672 86.4289C171.944 86.4289 193.241 107.736 193.241 134.02Z" fill="url(#paint16_linear_1587_2641)"/>
<g filter="url(#filter2_b_1587_2641)">
<path d="M145.669 181.61C171.94 181.61 193.238 160.303 193.238 134.02C193.238 107.736 171.94 86.429 145.669 86.429C119.397 86.429 98.0996 107.736 98.0996 134.02C98.0996 160.303 119.397 181.61 145.669 181.61Z" fill="url(#paint17_linear_1587_2641)" fill-opacity="0.2"/>
</g>
<path d="M212.105 207.83L225.56 192.99L227.587 194.829C229.553 196.613 230.73 199.106 230.859 201.759C230.989 204.411 230.059 207.007 228.276 208.974C226.492 210.941 224.001 212.119 221.349 212.248C218.698 212.377 216.103 211.448 214.137 209.663L212.111 207.824L212.105 207.83Z" fill="#7EDA88"/>
<defs>
<filter id="filter0_d_1587_2641" x="0" y="111.753" width="94.0078" height="115.335" filterUnits="userSpaceOnUse" color-interpolation-filters="sRGB">
<feFlood flood-opacity="0" result="BackgroundImageFix"/>
<feColorMatrix in="SourceAlpha" type="matrix" values="0 0 0 0 0 0 0 0 0 0 0 0 0 0 0 0 0 0 127 0" result="hardAlpha"/>
<feOffset dx="3" dy="7"/>
<feGaussianBlur stdDeviation="7.5"/>
<feComposite in2="hardAlpha" operator="out"/>
<feColorMatrix type="matrix" values="0 0 0 0 0.104618 0 0 0 0 0.465612 0 0 0 0 0.545833 0 0 0 0.15 0"/>
<feBlend mode="normal" in2="BackgroundImageFix" result="effect1_dropShadow_1587_2641"/>
<feBlend mode="normal" in="SourceGraphic" in2="effect1_dropShadow_1587_2641" result="shape"/>
</filter>
<filter id="filter1_d_1587_2641" x="143.557" y="0" width="90.0078" height="60.9992" filterUnits="userSpaceOnUse" color-interpolation-filters="sRGB">
<feFlood flood-opacity="0" result="BackgroundImageFix"/>
<feColorMatrix in="SourceAlpha" type="matrix" values="0 0 0 0 0 0 0 0 0 0 0 0 0 0 0 0 0 0 127 0" result="hardAlpha"/>
<feOffset dx="6" dy="4"/>
<feGaussianBlur stdDeviation="6.5"/>
<feComposite in2="hardAlpha" operator="out"/>
<feColorMatrix type="matrix" values="0 0 0 0 0.104618 0 0 0 0 0.465612 0 0 0 0 0.545833 0 0 0 0.09 0"/>
<feBlend mode="normal" in2="BackgroundImageFix" result="effect1_dropShadow_1587_2641"/>
<feBlend mode="normal" in="SourceGraphic" in2="effect1_dropShadow_1587_2641" result="shape"/>
</filter>
<filter id="filter2_b_1587_2641" x="81.4245" y="69.7538" width="128.489" height="128.532" filterUnits="userSpaceOnUse" color-interpolation-filters="sRGB">
<feFlood flood-opacity="0" result="BackgroundImageFix"/>
<feGaussianBlur in="BackgroundImageFix" stdDeviation="8.33757"/>
<feComposite in2="SourceAlpha" operator="in" result="effect1_backgroundBlur_1587_2641"/>
<feBlend mode="normal" in="SourceGraphic" in2="effect1_backgroundBlur_1587_2641" result="shape"/>
</filter>
<linearGradient id="paint0_linear_1587_2641" x1="117.466" y1="15.7934" x2="117.466" y2="225" gradientUnits="userSpaceOnUse">
<stop offset="0.0572917" stop-color="#D9FFDD"/>
<stop offset="1" stop-color="#A1F5AA"/>
</linearGradient>
<linearGradient id="paint1_linear_1587_2641" x1="44.8144" y1="46.3948" x2="187.016" y2="46.3948" gradientUnits="userSpaceOnUse">
<stop offset="0.0572917" stop-color="#ABFBB3"/>
<stop offset="1" stop-color="#55DE63"/>
</linearGradient>
<linearGradient id="paint2_linear_1587_2641" x1="187.016" y1="59.1621" x2="44.7844" y2="137.993" gradientUnits="userSpaceOnUse">
<stop stop-color="#DCFFD9"/>
<stop offset="0.71875" stop-color="white"/>
</linearGradient>
<linearGradient id="paint3_linear_1587_2641" x1="166.055" y1="70.104" x2="65.7844" y2="70.104" gradientUnits="userSpaceOnUse">
<stop offset="0.0572917" stop-color="#C2FAC7"/>
<stop offset="1" stop-color="#A1F5AA"/>
</linearGradient>
<linearGradient id="paint4_linear_1587_2641" x1="166.055" y1="100.194" x2="65.7844" y2="100.194" gradientUnits="userSpaceOnUse">
<stop offset="0.0572917" stop-color="#D9FFDD"/>
<stop offset="1" stop-color="#A1F5AA"/>
</linearGradient>
<linearGradient id="paint5_linear_1587_2641" x1="160.586" y1="129.38" x2="65.7844" y2="129.38" gradientUnits="userSpaceOnUse">
<stop offset="0.0572917" stop-color="#D9FFDD"/>
<stop offset="1" stop-color="#A1F5AA"/>
</linearGradient>
<linearGradient id="paint6_linear_1587_2641" x1="166.055" y1="159.477" x2="65.7844" y2="159.477" gradientUnits="userSpaceOnUse">
<stop offset="0.0572917" stop-color="#D9FFDD"/>
<stop offset="1" stop-color="#A1F5AA"/>
</linearGradient>
<linearGradient id="paint7_linear_1587_2641" x1="12" y1="185.009" x2="75.8091" y2="178.631" gradientUnits="userSpaceOnUse">
<stop offset="0.395833" stop-color="white"/>
<stop offset="1" stop-color="#EAFFEC"/>
</linearGradient>
<linearGradient id="paint8_linear_1587_2641" x1="150.557" y1="21.3115" x2="214.366" y2="16.7558" gradientUnits="userSpaceOnUse">
<stop offset="0.0572917" stop-color="#FAFFFA"/>
<stop offset="1" stop-color="#CCFFD1"/>
</linearGradient>
<linearGradient id="paint9_linear_1587_2641" x1="70.6279" y1="160.075" x2="18.6695" y2="160.075" gradientUnits="userSpaceOnUse">
<stop stop-color="#C4FBCA"/>
<stop offset="1" stop-color="#85E38E"/>
</linearGradient>
<linearGradient id="paint10_linear_1587_2641" x1="70.5825" y1="193.039" x2="19.0706" y2="193.039" gradientUnits="userSpaceOnUse">
<stop stop-color="#C4FBCA"/>
<stop offset="1" stop-color="#85E38E"/>
</linearGradient>
<linearGradient id="paint11_linear_1587_2641" x1="70.5825" y1="175.71" x2="19.0706" y2="175.71" gradientUnits="userSpaceOnUse">
<stop stop-color="#C4FBCA"/>
<stop offset="1" stop-color="#85E38E"/>
</linearGradient>
<linearGradient id="paint12_linear_1587_2641" x1="42.9876" y1="136.675" x2="22.9334" y2="136.675" gradientUnits="userSpaceOnUse">
<stop offset="0.0572917" stop-color="#C4FBCA"/>
<stop offset="1" stop-color="#8AE593"/>
</linearGradient>
<linearGradient id="paint13_linear_1587_2641" x1="183.059" y1="21.1696" x2="183.059" y2="31.7993" gradientUnits="userSpaceOnUse">
<stop offset="0.0572917" stop-color="#A0EFA8"/>
<stop offset="1" stop-color="#A1F5AA"/>
</linearGradient>
<linearGradient id="paint14_linear_1587_2641" x1="202.045" y1="21.1696" x2="202.045" y2="31.7993" gradientUnits="userSpaceOnUse">
<stop offset="0.0572917" stop-color="#A0EFA8"/>
<stop offset="1" stop-color="#A1F5AA"/>
</linearGradient>
<linearGradient id="paint15_linear_1587_2641" x1="193.394" y1="192.304" x2="210.266" y2="174.984" gradientUnits="userSpaceOnUse">
<stop offset="0.0677083" stop-color="#A3FFAC"/>
<stop offset="1" stop-color="#50D95E"/>
</linearGradient>
<linearGradient id="paint16_linear_1587_2641" x1="89.4844" y1="146.71" x2="201.606" y2="133.954" gradientUnits="userSpaceOnUse">
<stop offset="0.0572917" stop-color="#AEF3B5"/>
<stop offset="1" stop-color="#6DDD79"/>
</linearGradient>
<linearGradient id="paint17_linear_1587_2641" x1="145.669" y1="86.429" x2="193.641" y2="210.854" gradientUnits="userSpaceOnUse">
<stop stop-color="white"/>
<stop offset="1" stop-color="#D2F7FF"/>
</linearGradient>
</defs>
</svg>
