<svg width="78" height="57" viewBox="0 0 78 57" fill="none" xmlns="http://www.w3.org/2000/svg">
<path d="M45.505 36.9407H18.1549L32.2538 4.87192L40.3675 21.3148C41.2635 23.1306 43.7329 23.4207 45.0253 21.8619L43.44 20.5475L45.0253 21.8619L48.5273 17.6381L56.8669 36.9407H45.505ZM49.9054 15.976C49.9049 15.9766 49.9045 15.9772 49.904 15.9777L49.9054 15.976L48.8863 15.1311L49.9054 15.976Z" stroke="#80D088" stroke-width="4.11866" stroke-linecap="round"/>
<path d="M15.9035 47.6611V49.0035H11.5919V51.1992H15.2778V52.5757H11.5919V56.1251H10.2267V47.6611H15.9035ZM18.0558 47.6611V54.7714H22.1399V56.1251H16.6793V47.6611H18.0558ZM26.2071 54.8396C27.9363 54.8396 29.0853 53.5427 29.0853 51.8931C29.0853 50.2549 27.9363 48.958 26.2071 48.958C24.4779 48.958 23.3402 50.2549 23.3402 51.8931C23.3402 53.5427 24.4779 54.8396 26.2071 54.8396ZM21.975 51.8931C21.975 49.5268 23.7043 47.5701 26.2071 47.5701C28.7099 47.5701 30.4505 49.5268 30.4505 51.8931C30.4505 54.2708 28.7099 56.2162 26.2071 56.2162C23.7043 56.2162 21.975 54.2708 21.975 51.8931ZM39.7673 47.6611V56.1251H38.3793V49.8112L35.9562 54.248H34.7162L32.3499 49.8112V56.1251H30.9733V47.6611H32.8277L35.3646 52.3254L37.8902 47.6611H39.7673ZM40.9588 47.6611H44.7812C46.0668 47.6611 47.102 48.6736 47.102 49.9591C47.102 50.6872 46.7607 51.2674 46.2374 51.6884C46.8631 52.1093 47.2954 52.8715 47.2954 53.7702C47.2954 55.0671 46.2602 56.1251 44.9746 56.1251H40.9588V47.6611ZM42.3353 54.6803H44.7812C45.3842 54.6803 45.862 54.2139 45.862 53.611C45.862 52.9625 45.3842 52.4506 44.7812 52.4506H42.3353V54.6803ZM42.3353 51.0968H44.6902C45.2704 51.074 45.7141 50.6645 45.7141 50.0843C45.7141 49.47 45.2363 49.0263 44.6333 49.0263H42.3353V51.0968ZM47.9115 47.6611H49.2767V56.1251H47.9115V47.6611ZM57.9759 47.6611V56.1251H56.2012L51.6961 49.6178V56.1251H50.3082V47.6611H52.0374L56.6107 54.157V47.6611H57.9759ZM67.0314 51.4608C67.0769 51.7452 67.02 52.5416 67.02 52.5416C66.7811 54.8851 65.2681 56.1934 62.9359 56.2162C60.2738 56.2162 58.7039 54.3049 58.7039 51.8931C58.7039 49.4927 60.2738 47.5815 62.9359 47.5815C65.6662 47.5815 66.5422 49.6178 66.5422 49.6178L65.3363 50.2891C65.3363 50.2891 64.722 48.958 62.9359 48.958C61.1157 48.958 60.0577 50.2436 60.0577 51.8931C60.0577 53.5541 61.1157 54.8396 62.9359 54.8396C64.1304 54.8055 65.2567 54.339 65.5525 52.7691H63.1293V51.4608H67.0314Z" fill="#80D088"/>
<path d="M15.9035 47.6611H16.022V47.5426H15.9035V47.6611ZM15.9035 49.0035V49.122H16.022V49.0035H15.9035ZM11.5919 49.0035V48.885H11.4734V49.0035H11.5919ZM11.5919 51.1992H11.4734V51.3177H11.5919V51.1992ZM15.2778 51.1992H15.3963V51.0807H15.2778V51.1992ZM15.2778 52.5757V52.6942H15.3963V52.5757H15.2778ZM11.5919 52.5757V52.4572H11.4734V52.5757H11.5919ZM11.5919 56.1251V56.2436H11.7104V56.1251H11.5919ZM10.2267 56.1251H10.1082V56.2436H10.2267V56.1251ZM10.2267 47.6611V47.5426H10.1082V47.6611H10.2267ZM15.785 47.6611V49.0035H16.022V47.6611H15.785ZM15.9035 48.885H11.5919V49.122H15.9035V48.885ZM11.4734 49.0035V51.1992H11.7104V49.0035H11.4734ZM11.5919 51.3177H15.2778V51.0807H11.5919V51.3177ZM15.1593 51.1992V52.5757H15.3963V51.1992H15.1593ZM15.2778 52.4572H11.5919V52.6942H15.2778V52.4572ZM11.4734 52.5757V56.1251H11.7104V52.5757H11.4734ZM11.5919 56.0066H10.2267V56.2436H11.5919V56.0066ZM10.3452 56.1251V47.6611H10.1082V56.1251H10.3452ZM10.2267 47.7796H15.9035V47.5426H10.2267V47.7796ZM18.0558 47.6611H18.1743V47.5426H18.0558V47.6611ZM18.0558 54.7714H17.9373V54.8899H18.0558V54.7714ZM22.1399 54.7714H22.2584V54.6528H22.1399V54.7714ZM22.1399 56.1251V56.2436H22.2584V56.1251H22.1399ZM16.6793 56.1251H16.5608V56.2436H16.6793V56.1251ZM16.6793 47.6611V47.5426H16.5608V47.6611H16.6793ZM17.9373 47.6611V54.7714H18.1743V47.6611H17.9373ZM18.0558 54.8899H22.1399V54.6528H18.0558V54.8899ZM22.0214 54.7714V56.1251H22.2584V54.7714H22.0214ZM22.1399 56.0066H16.6793V56.2436H22.1399V56.0066ZM16.7978 56.1251V47.6611H16.5608V56.1251H16.7978ZM16.6793 47.7796H18.0558V47.5426H16.6793V47.7796ZM26.2071 54.9581C28.0075 54.9581 29.2038 53.6022 29.2038 51.8931H28.9668C28.9668 53.4832 27.8651 54.7211 26.2071 54.7211V54.9581ZM29.2038 51.8931C29.2038 50.1951 28.0072 48.8395 26.2071 48.8395V49.0765C27.8654 49.0765 28.9668 50.3148 28.9668 51.8931H29.2038ZM26.2071 48.8395C24.4063 48.8395 23.2217 50.1957 23.2217 51.8931H23.4587C23.4587 50.3141 24.5494 49.0765 26.2071 49.0765V48.8395ZM23.2217 51.8931C23.2217 53.6016 24.406 54.9581 26.2071 54.9581V54.7211C24.5497 54.7211 23.4587 53.4838 23.4587 51.8931H23.2217ZM22.0936 51.8931C22.0936 49.5864 23.7754 47.6886 26.2071 47.6886V47.4516C23.6331 47.4516 21.8565 49.4673 21.8565 51.8931H22.0936ZM26.2071 47.6886C28.6391 47.6886 30.332 49.5868 30.332 51.8931H30.569C30.569 49.4668 28.7806 47.4516 26.2071 47.4516V47.6886ZM30.332 51.8931C30.332 54.2106 28.6393 56.0976 26.2071 56.0976V56.3347C28.7804 56.3347 30.569 54.331 30.569 51.8931H30.332ZM26.2071 56.0976C23.7752 56.0976 22.0936 54.211 22.0936 51.8931H21.8565C21.8565 54.3306 23.6333 56.3347 26.2071 56.3347V56.0976ZM39.7673 47.6611H39.8858V47.5426H39.7673V47.6611ZM39.7673 56.1251V56.2436H39.8858V56.1251H39.7673ZM38.3793 56.1251H38.2608V56.2436H38.3793V56.1251ZM38.3793 49.8112H38.4979L38.2753 49.7544L38.3793 49.8112ZM35.9562 54.248V54.3665H36.0265L36.0602 54.3048L35.9562 54.248ZM34.7162 54.248L34.6116 54.3038L34.6451 54.3665H34.7162V54.248ZM32.3499 49.8112L32.4544 49.7555L32.2314 49.8112H32.3499ZM32.3499 56.1251V56.2436H32.4684V56.1251H32.3499ZM30.9733 56.1251H30.8548V56.2436H30.9733V56.1251ZM30.9733 47.6611V47.5426H30.8548V47.6611H30.9733ZM32.8277 47.6611L32.9318 47.6045L32.8981 47.5426H32.8277V47.6611ZM35.3646 52.3254L35.2605 52.3821L35.3648 52.5739L35.4688 52.3819L35.3646 52.3254ZM37.8902 47.6611V47.5426H37.8196L37.786 47.6047L37.8902 47.6611ZM39.6488 47.6611V56.1251H39.8858V47.6611H39.6488ZM39.7673 56.0066H38.3793V56.2436H39.7673V56.0066ZM38.4979 56.1251V49.8112H38.2608V56.1251H38.4979ZM38.2753 49.7544L35.8522 54.1912L36.0602 54.3048L38.4834 49.868L38.2753 49.7544ZM35.9562 54.1295H34.7162V54.3665H35.9562V54.1295ZM34.8207 54.1923L32.4544 49.7555L32.2453 49.867L34.6116 54.3038L34.8207 54.1923ZM32.2314 49.8112V56.1251H32.4684V49.8112H32.2314ZM32.3499 56.0066H30.9733V56.2436H32.3499V56.0066ZM31.0918 56.1251V47.6611H30.8548V56.1251H31.0918ZM30.9733 47.7796H32.8277V47.5426H30.9733V47.7796ZM32.7236 47.7177L35.2605 52.3821L35.4687 52.2688L32.9318 47.6045L32.7236 47.7177ZM35.4688 52.3819L37.9944 47.7175L37.786 47.6047L35.2604 52.269L35.4688 52.3819ZM37.8902 47.7796H39.7673V47.5426H37.8902V47.7796ZM40.9588 47.6611V47.5426H40.8403V47.6611H40.9588ZM46.2374 51.6884L46.1631 51.596L46.0378 51.6969L46.1713 51.7867L46.2374 51.6884ZM40.9588 56.1251H40.8403V56.2436H40.9588V56.1251ZM42.3353 54.6803H42.2168V54.7988H42.3353V54.6803ZM42.3353 52.4506V52.3321H42.2168V52.4506H42.3353ZM42.3353 51.0968H42.2168V51.2153H42.3353V51.0968ZM44.6902 51.0968V51.2154L44.6949 51.2152L44.6902 51.0968ZM42.3353 49.0263V48.9078H42.2168V49.0263H42.3353ZM40.9588 47.7796H44.7812V47.5426H40.9588V47.7796ZM44.7812 47.7796C46.0028 47.7796 46.9835 48.7406 46.9835 49.9591H47.2205C47.2205 48.6066 46.1307 47.5426 44.7812 47.5426V47.7796ZM46.9835 49.9591C46.9835 50.6455 46.6634 51.1937 46.1631 51.596L46.3117 51.7807C46.8581 51.3412 47.2205 50.7289 47.2205 49.9591H46.9835ZM46.1713 51.7867C46.7632 52.1849 47.1769 52.9097 47.1769 53.7702H47.4139C47.4139 52.8332 46.963 52.0336 46.3036 51.59L46.1713 51.7867ZM47.1769 53.7702C47.1769 55.0036 46.1928 56.0066 44.9746 56.0066V56.2436C46.3275 56.2436 47.4139 55.1307 47.4139 53.7702H47.1769ZM44.9746 56.0066H40.9588V56.2436H44.9746V56.0066ZM41.0773 56.1251V47.6611H40.8403V56.1251H41.0773ZM42.3353 54.7988H44.7812V54.5618H42.3353V54.7988ZM44.7812 54.7988C45.448 54.7988 45.9805 54.281 45.9805 53.611H45.7435C45.7435 54.1468 45.3204 54.5618 44.7812 54.5618V54.7988ZM45.9805 53.611C45.9805 52.9051 45.4573 52.3321 44.7812 52.3321V52.5691C45.311 52.5691 45.7435 53.02 45.7435 53.611H45.9805ZM44.7812 52.3321H42.3353V52.5691H44.7812V52.3321ZM42.2168 52.4506V54.6803H42.4538V52.4506H42.2168ZM42.3353 51.2153H44.6902V50.9783H42.3353V51.2153ZM44.6949 51.2152C45.3308 51.1903 45.8326 50.7357 45.8326 50.0843H45.5956C45.5956 50.5932 45.2101 50.9578 44.6856 50.9784L44.6949 51.2152ZM45.8326 50.0843C45.8326 49.4004 45.2975 48.9078 44.6333 48.9078V49.1448C45.175 49.1448 45.5956 49.5395 45.5956 50.0843H45.8326ZM44.6333 48.9078H42.3353V49.1448H44.6333V48.9078ZM42.2168 49.0263V51.0968H42.4538V49.0263H42.2168ZM47.9115 47.6611V47.5426H47.793V47.6611H47.9115ZM49.2767 47.6611H49.3952V47.5426H49.2767V47.6611ZM49.2767 56.1251V56.2436H49.3952V56.1251H49.2767ZM47.9115 56.1251H47.793V56.2436H47.9115V56.1251ZM47.9115 47.7796H49.2767V47.5426H47.9115V47.7796ZM49.1582 47.6611V56.1251H49.3952V47.6611H49.1582ZM49.2767 56.0066H47.9115V56.2436H49.2767V56.0066ZM48.03 56.1251V47.6611H47.793V56.1251H48.03ZM57.9759 47.6611H58.0944V47.5426H57.9759V47.6611ZM57.9759 56.1251V56.2436H58.0944V56.1251H57.9759ZM56.2012 56.1251L56.1037 56.1926L56.1391 56.2436H56.2012V56.1251ZM51.6961 49.6178L51.7935 49.5504L51.5776 49.2385V49.6178H51.6961ZM51.6961 56.1251V56.2436H51.8146V56.1251H51.6961ZM50.3082 56.1251H50.1897V56.2436H50.3082V56.1251ZM50.3082 47.6611V47.5426H50.1897V47.6611H50.3082ZM52.0374 47.6611L52.1343 47.5929L52.0989 47.5426H52.0374V47.6611ZM56.6107 54.157L56.5138 54.2252L56.7292 54.5312V54.157H56.6107ZM56.6107 47.6611V47.5426H56.4922V47.6611H56.6107ZM57.8574 47.6611V56.1251H58.0944V47.6611H57.8574ZM57.9759 56.0066H56.2012V56.2436H57.9759V56.0066ZM56.2986 56.0577L51.7935 49.5504L51.5987 49.6853L56.1037 56.1926L56.2986 56.0577ZM51.5776 49.6178V56.1251H51.8146V49.6178H51.5776ZM51.6961 56.0066H50.3082V56.2436H51.6961V56.0066ZM50.4267 56.1251V47.6611H50.1897V56.1251H50.4267ZM50.3082 47.7796H52.0374V47.5426H50.3082V47.7796ZM51.9405 47.7293L56.5138 54.2252L56.7076 54.0888L52.1343 47.5929L51.9405 47.7293ZM56.7292 54.157V47.6611H56.4922V54.157H56.7292ZM56.6107 47.7796H57.9759V47.5426H56.6107V47.7796ZM67.0314 51.4608L67.1484 51.4421L67.1324 51.3423H67.0314V51.4608ZM67.02 52.5416L67.138 52.5536L67.1382 52.55L67.02 52.5416ZM62.9359 56.2162V56.3347L62.937 56.3347L62.9359 56.2162ZM66.5422 49.6178L66.5998 49.7214L66.6934 49.6693L66.6511 49.571L66.5422 49.6178ZM65.3363 50.2891L65.2287 50.3387L65.2823 50.4548L65.3939 50.3926L65.3363 50.2891ZM62.9359 54.8396V54.9582L62.9393 54.9581L62.9359 54.8396ZM65.5525 52.7691L65.6689 52.791L65.6954 52.6506H65.5525V52.7691ZM63.1293 52.7691H63.0108V52.8876H63.1293V52.7691ZM63.1293 51.4608V51.3423H63.0108V51.4608H63.1293ZM66.9144 51.4795C66.935 51.6082 66.933 51.8662 66.9243 52.1035C66.9201 52.2198 66.9145 52.3273 66.9099 52.4058C66.9076 52.445 66.9056 52.477 66.9041 52.499C66.9034 52.5101 66.9028 52.5187 66.9024 52.5244C66.9022 52.5273 66.9021 52.5295 66.902 52.531C66.9019 52.5317 66.9019 52.5323 66.9018 52.5326C66.9018 52.5328 66.9018 52.5329 66.9018 52.533C66.9018 52.5331 66.9018 52.5331 66.9018 52.5331C66.9018 52.5331 66.9018 52.5331 66.9018 52.5331C66.9018 52.5331 66.9018 52.5331 67.02 52.5416C67.1382 52.55 67.1382 52.55 67.1382 52.55C67.1382 52.55 67.1382 52.55 67.1382 52.55C67.1382 52.5499 67.1382 52.5499 67.1382 52.5498C67.1382 52.5497 67.1382 52.5496 67.1383 52.5494C67.1383 52.549 67.1383 52.5484 67.1384 52.5476C67.1385 52.546 67.1387 52.5437 67.1389 52.5407C67.1393 52.5347 67.1399 52.5259 67.1406 52.5146C67.1421 52.492 67.1442 52.4595 67.1465 52.4196C67.1511 52.3399 67.1569 52.2306 67.1612 52.1122C67.1696 51.8802 67.1733 51.5979 67.1484 51.4421L66.9144 51.4795ZM66.9021 52.5296C66.785 53.6779 66.3574 54.5612 65.6841 55.1606C65.0104 55.7604 64.0789 56.0865 62.9347 56.0977L62.937 56.3347C64.125 56.3231 65.1161 55.9836 65.8417 55.3377C66.5677 54.6914 67.0161 53.7488 67.1379 52.5536L66.9021 52.5296ZM62.9359 56.0976C61.6348 56.0976 60.6093 55.6315 59.9084 54.8783C59.2064 54.124 58.8224 53.0735 58.8224 51.8931H58.5854C58.5854 53.1245 58.9864 54.2355 59.7349 55.0398C60.4844 55.8452 61.5749 56.3347 62.9359 56.3347V56.0976ZM58.8224 51.8931C58.8224 50.7185 59.2063 49.6709 59.9083 48.918C60.6092 48.1662 61.6348 47.7 62.9359 47.7V47.463C61.5749 47.463 60.4845 47.9524 59.7349 48.7563C58.9864 49.5591 58.5854 50.6673 58.5854 51.8931H58.8224ZM62.9359 47.7C64.2683 47.7 65.1422 48.1958 65.6832 48.6874C65.9546 48.9339 66.1431 49.1804 66.2635 49.3645C66.3236 49.4565 66.3666 49.5328 66.3943 49.5855C66.4082 49.6119 66.4182 49.6323 66.4247 49.6458C66.4279 49.6526 66.4302 49.6576 66.4316 49.6608C66.4323 49.6624 66.4328 49.6635 66.4331 49.6642C66.4333 49.6645 66.4334 49.6647 66.4334 49.6648C66.4334 49.6648 66.4334 49.6648 66.4334 49.6648C66.4334 49.6648 66.4334 49.6648 66.4334 49.6648C66.4334 49.6647 66.4333 49.6647 66.5422 49.6178C66.6511 49.571 66.651 49.571 66.651 49.5709C66.651 49.5708 66.6509 49.5708 66.6509 49.5707C66.6509 49.5705 66.6508 49.5704 66.6507 49.5702C66.6505 49.5698 66.6503 49.5692 66.65 49.5686C66.6494 49.5673 66.6486 49.5655 66.6476 49.5632C66.6456 49.5587 66.6426 49.5523 66.6387 49.5441C66.631 49.5278 66.6195 49.5045 66.6041 49.4752C66.5733 49.4165 66.5265 49.3337 66.4619 49.2348C66.3327 49.0372 66.1315 48.7745 65.8426 48.512C65.2631 47.9854 64.3338 47.463 62.9359 47.463V47.7ZM66.4846 49.5143L65.2787 50.1855L65.3939 50.3926L66.5998 49.7214L66.4846 49.5143ZM65.3363 50.2891C65.4439 50.2394 65.4439 50.2393 65.4438 50.2393C65.4438 50.2392 65.4438 50.2392 65.4438 50.2391C65.4437 50.239 65.4436 50.2388 65.4436 50.2387C65.4434 50.2384 65.4432 50.238 65.443 50.2375C65.4426 50.2365 65.442 50.2353 65.4412 50.2337C65.4397 50.2305 65.4375 50.2261 65.4347 50.2206C65.4291 50.2095 65.4209 50.1938 65.4099 50.1742C65.388 50.1349 65.3552 50.0798 65.3102 50.0141C65.2202 49.8828 65.0814 49.7087 64.8843 49.5347C64.4887 49.1854 63.8615 48.8395 62.9359 48.8395V49.0765C63.7964 49.0765 64.3693 49.3962 64.7274 49.7124C64.9072 49.8711 65.0336 50.0298 65.1147 50.1481C65.1552 50.2072 65.1842 50.256 65.2029 50.2896C65.2122 50.3063 65.219 50.3192 65.2232 50.3276C65.2254 50.3318 65.2269 50.3349 65.2278 50.3368C65.2282 50.3377 65.2285 50.3384 65.2287 50.3387C65.2288 50.3389 65.2288 50.3389 65.2288 50.3389C65.2288 50.3389 65.2288 50.3389 65.2288 50.3389C65.2288 50.3389 65.2288 50.3388 65.2288 50.3388C65.2287 50.3388 65.2287 50.3387 65.3363 50.2891ZM62.9359 48.8395C61.9963 48.8395 61.2442 49.1722 60.7275 49.7262C60.2119 50.279 59.9392 51.0432 59.9392 51.8931H60.1762C60.1762 51.0934 60.4324 50.3901 60.9009 49.8878C61.3682 49.3866 62.0552 49.0765 62.9359 49.0765V48.8395ZM59.9392 51.8931C59.9392 52.7485 60.2118 53.5156 60.7274 54.0699C61.2441 54.6255 61.9963 54.9581 62.9359 54.9581V54.7211C62.0552 54.7211 61.3683 54.411 60.901 53.9085C60.4325 53.4049 60.1762 52.6987 60.1762 51.8931H59.9392ZM62.9393 54.9581C63.5491 54.9406 64.1544 54.8128 64.6477 54.4784C65.1447 54.1415 65.5159 53.6033 65.6689 52.791L65.436 52.7472C65.2933 53.5048 64.9535 53.9848 64.5147 54.2822C64.0723 54.582 63.5172 54.7044 62.9325 54.7212L62.9393 54.9581ZM65.5525 52.6506H63.1293V52.8876H65.5525V52.6506ZM63.2478 52.7691V51.4608H63.0108V52.7691H63.2478ZM63.1293 51.5793H67.0314V51.3423H63.1293V51.5793Z" fill="#80D088"/>
<path d="M49.6049 41.9429L43.7335 37.3437L49.6049 32.7445L49.6049 41.9429Z" fill="#80D088" stroke="#80D088" stroke-width="0.118504"/>
</svg>
